<svg width="24" height="24" viewBox="0 0 24 24" fill="none" xmlns="http://www.w3.org/2000/svg">
<path d="M11.04 17.28C7.584 17.28 4.8 14.496 4.8 11.04C4.8 7.584 7.584 4.8 11.04 4.8C14.496 4.8 17.28 7.584 17.28 11.04C17.28 14.496 14.496 17.28 11.04 17.28ZM11.04 5.76C8.112 5.76 5.76 8.112 5.76 11.04C5.76 13.968 8.112 16.32 11.04 16.32C13.968 16.32 16.32 13.968 16.32 11.04C16.32 8.112 13.968 5.76 11.04 5.76Z" fill="white"/>
<path d="M15.6874 15.0082L19.9978 19.3186L19.319 19.9973L15.0086 15.6869L15.6874 15.0082Z" fill="white"/>
</svg>
