<svg width="18" height="18" viewBox="0 0 18 18" fill="none" xmlns="http://www.w3.org/2000/svg">
<path d="M17.1561 8.43616C17.1559 8.41955 17.1542 8.40298 17.1511 8.38666C17.1505 8.38299 17.1497 8.37934 17.1489 8.3757C17.1458 8.36117 17.1415 8.34693 17.1361 8.33309L17.1342 8.3283L17.134 8.32781L16.1525 5.87412C16.0904 5.71724 15.9824 5.58273 15.8427 5.48813C15.7029 5.39353 15.5379 5.34321 15.3692 5.34375H12.6562V4.5C12.6562 4.42541 12.6266 4.35387 12.5739 4.30113C12.5211 4.24838 12.4496 4.21875 12.375 4.21875H1.6875C1.4638 4.21899 1.24933 4.30796 1.09115 4.46615C0.932964 4.62433 0.843992 4.8388 0.84375 5.0625V12.9375C0.843992 13.1612 0.932964 13.3757 1.09115 13.5339C1.24933 13.692 1.4638 13.781 1.6875 13.7812H2.83289C2.90039 14.2499 3.13452 14.6784 3.49237 14.9884C3.85022 15.2984 4.3078 15.4691 4.78125 15.4691C5.2547 15.4691 5.71228 15.2984 6.07013 14.9884C6.42798 14.6784 6.66211 14.2499 6.72961 13.7812H11.2704C11.3379 14.2499 11.572 14.6784 11.9299 14.9884C12.2877 15.2984 12.7453 15.4691 13.2188 15.4691C13.6922 15.4691 14.1498 15.2984 14.5076 14.9884C14.8655 14.6784 15.0996 14.2499 15.1671 13.7812H16.3125C16.5362 13.781 16.7507 13.692 16.9089 13.5339C17.067 13.3757 17.156 13.1612 17.1562 12.9375V8.4375L17.1561 8.43616ZM15.3692 5.90625C15.4254 5.90607 15.4805 5.92285 15.527 5.95439C15.5736 5.98593 15.6096 6.03078 15.6303 6.08309L16.4596 8.15625H12.6562V5.90625H15.3692ZM1.6875 4.78125H12.0938V9.84375H1.40625V5.0625C1.40632 4.98793 1.43598 4.91644 1.48871 4.86371C1.54144 4.81098 1.61293 4.78132 1.6875 4.78125V4.78125ZM1.40625 12.9375V10.4062H12.0938V11.8857C11.8727 12.0398 11.6855 12.2376 11.5439 12.4669C11.4023 12.6962 11.3092 12.9521 11.2704 13.2188H6.72961C6.66211 12.7501 6.42798 12.3216 6.07013 12.0116C5.71228 11.7016 5.2547 11.5309 4.78125 11.5309C4.3078 11.5309 3.85022 11.7016 3.49237 12.0116C3.13452 12.3216 2.90039 12.7501 2.83289 13.2188H1.6875C1.61293 13.2187 1.54144 13.189 1.48871 13.1363C1.43598 13.0836 1.40632 13.0121 1.40625 12.9375ZM4.78125 14.9062C4.50312 14.9063 4.23124 14.8238 3.99998 14.6693C3.76872 14.5147 3.58848 14.2951 3.48204 14.0381C3.37561 13.7812 3.34776 13.4984 3.40202 13.2257C3.45628 12.9529 3.59021 12.7023 3.78688 12.5056C3.98355 12.309 4.23412 12.175 4.5069 12.1208C4.77969 12.0665 5.06244 12.0944 5.3194 12.2008C5.57636 12.3072 5.79598 12.4875 5.9505 12.7187C6.10503 12.95 6.1875 13.2219 6.1875 13.5C6.18709 13.8728 6.0388 14.2303 5.77517 14.4939C5.51153 14.7576 5.15409 14.9058 4.78125 14.9062V14.9062ZM13.2188 14.9062C12.9406 14.9063 12.6687 14.8238 12.4375 14.6693C12.2062 14.5147 12.026 14.2951 11.9195 14.0381C11.8131 13.7812 11.7853 13.4984 11.8395 13.2257C11.8938 12.9529 12.0277 12.7023 12.2244 12.5056C12.421 12.309 12.6716 12.175 12.9444 12.1208C13.2172 12.0665 13.4999 12.0944 13.7569 12.2008C14.0139 12.3072 14.2335 12.4875 14.388 12.7187C14.5425 12.95 14.625 13.2219 14.625 13.5C14.6246 13.8728 14.4763 14.2303 14.2127 14.4939C13.949 14.7576 13.5916 14.9058 13.2188 14.9062V14.9062ZM16.5938 12.9375C16.5937 13.0121 16.564 13.0836 16.5113 13.1363C16.4586 13.189 16.3871 13.2187 16.3125 13.2188H15.1671C15.1268 12.9388 15.0267 12.6708 14.8735 12.4331C14.7203 12.1953 14.5176 11.9934 14.2793 11.841C14.041 11.6887 13.7727 11.5895 13.4926 11.5502C13.2125 11.511 12.9273 11.5326 12.6562 11.6135V8.71875H16.5938V12.9375Z" fill="#505050"/>
</svg>
